<?xml version="1.0" encoding="utf-8" standalone="no"?>
<!DOCTYPE svg PUBLIC "-//W3C//DTD SVG 1.1//EN"
  "http://www.w3.org/Graphics/SVG/1.1/DTD/svg11.dtd">
<svg xmlns:xlink="http://www.w3.org/1999/xlink" width="504pt" height="360pt" viewBox="0 0 504 360" xmlns="http://www.w3.org/2000/svg" version="1.1">
 <metadata>
  <rdf:RDF xmlns:dc="http://purl.org/dc/elements/1.1/" xmlns:cc="http://creativecommons.org/ns#" xmlns:rdf="http://www.w3.org/1999/02/22-rdf-syntax-ns#">
   <cc:Work>
    <dc:type rdf:resource="http://purl.org/dc/dcmitype/StillImage"/>
    <dc:date>2023-06-06T15:34:26.029901</dc:date>
    <dc:format>image/svg+xml</dc:format>
    <dc:creator>
     <cc:Agent>
      <dc:title>Matplotlib v3.7.1, https://matplotlib.org/</dc:title>
     </cc:Agent>
    </dc:creator>
   </cc:Work>
  </rdf:RDF>
 </metadata>
 <defs>
  <style type="text/css">*{stroke-linejoin: round; stroke-linecap: butt}</style>
 </defs>
 <g id="figure_1">
  <g id="patch_1">
   <path d="M 0 360 
L 504 360 
L 504 0 
L 0 0 
z
" style="fill: #ffffff"/>
  </g>
  <g id="axes_1">
   <g id="patch_2">
    <path d="M 50.87 318.04 
L 493.2 318.04 
L 493.2 26.88 
L 50.87 26.88 
z
" style="fill: #ffffff"/>
   </g>
   <g id="PolyCollection_1">
    <defs>
     <path id="m2d0e683b8b" d="M 70.975909 -55.194545 
L 70.975909 -55.194545 
L 74.2992 -55.194545 
L 77.622491 -55.194545 
L 80.945781 -55.335992 
L 84.269072 -55.378291 
L 87.592363 -55.57352 
L 90.915654 -55.684332 
L 94.238944 -55.745603 
L 97.562235 -55.745603 
L 100.885526 -55.745603 
L 104.208817 -55.745603 
L 107.532107 -55.839085 
L 110.855398 -55.901028 
L 114.178689 -56.36316 
L 117.50198 -56.40888 
L 120.82527 -56.642398 
L 124.148561 -56.642398 
L 127.471852 -56.642398 
L 130.795143 -56.642398 
L 134.118434 -56.642398 
L 137.441724 -56.642398 
L 140.765015 -56.671097 
L 144.088306 -57.125098 
L 147.411597 -57.274001 
L 150.734887 -57.274001 
L 154.058178 -57.712523 
L 157.381469 -58.03659 
L 160.70476 -58.03659 
L 164.02805 -58.090555 
L 167.351341 -58.265633 
L 170.674632 -58.265633 
L 173.997923 -58.521089 
L 177.321213 -58.733893 
L 180.644504 -59.188213 
L 183.967795 -59.188213 
L 187.291086 -59.188213 
L 190.614376 -59.232126 
L 193.937667 -59.696577 
L 197.260958 -59.424743 
L 200.584249 -59.466067 
L 203.907539 -59.501481 
L 207.23083 -59.710191 
L 210.554121 -59.710191 
L 213.877412 -59.901036 
L 217.200702 -59.901036 
L 220.523993 -59.901036 
L 223.847284 -60.11927 
L 227.170575 -61.198401 
L 230.493866 -61.24834 
L 233.817156 -61.24834 
L 237.140447 -61.480666 
L 240.463738 -61.747458 
L 243.787029 -62.045833 
L 247.110319 -62.346749 
L 250.43361 -62.704964 
L 253.756901 -62.994246 
L 257.080192 -63.33318 
L 260.403482 -63.610834 
L 263.726773 -63.610834 
L 267.050064 -63.94683 
L 270.373355 -64.766145 
L 273.696645 -64.918545 
L 277.019936 -65.205926 
L 280.343227 -65.205926 
L 283.666518 -65.506469 
L 286.989808 -66.027247 
L 290.313099 -66.027247 
L 293.63639 -66.633939 
L 296.959681 -66.89438 
L 300.282971 -67.190546 
L 303.606262 -67.981352 
L 306.929553 -68.363718 
L 310.252844 -68.363718 
L 313.576134 -68.465276 
L 316.899425 -69.38911 
L 320.222716 -67.38059 
L 323.546007 -67.718206 
L 326.869298 -66.632645 
L 330.192588 -66.632645 
L 333.515879 -67.49569 
L 336.83917 -67.49569 
L 340.162461 -67.649072 
L 343.485751 -67.649072 
L 346.809042 -68.436537 
L 350.132333 -68.436537 
L 353.455624 -68.436537 
L 356.778914 -68.79111 
L 360.102205 -68.79111 
L 363.425496 -69.269893 
L 366.748787 -69.269893 
L 370.072077 -70.238318 
L 373.395368 -70.69262 
L 376.718659 -72.496361 
L 380.04195 -73.567252 
L 383.36524 -61.431512 
L 386.688531 -61.553269 
L 390.011822 -63.072251 
L 393.335113 -67.011104 
L 393.335113 -78.827662 
L 393.335113 -78.827662 
L 390.011822 -74.101039 
L 386.688531 -72.468938 
L 383.36524 -71.015155 
L 380.04195 -99.213268 
L 376.718659 -93.82444 
L 373.395368 -91.689328 
L 370.072077 -91.355859 
L 366.748787 -90.748743 
L 363.425496 -90.748743 
L 360.102205 -90.439756 
L 356.778914 -90.439756 
L 353.455624 -88.431017 
L 350.132333 -88.431017 
L 346.809042 -88.431017 
L 343.485751 -86.85517 
L 340.162461 -86.85517 
L 336.83917 -86.220782 
L 333.515879 -86.220782 
L 330.192588 -84.720516 
L 326.869298 -84.720516 
L 323.546007 -83.1848 
L 320.222716 -82.847184 
L 316.899425 -82.948763 
L 313.576134 -82.100113 
L 310.252844 -81.610843 
L 306.929553 -81.610843 
L 303.606262 -81.402382 
L 300.282971 -79.239049 
L 296.959681 -76.581075 
L 293.63639 -75.896191 
L 290.313099 -75.084896 
L 286.989808 -75.084896 
L 283.666518 -74.187687 
L 280.343227 -73.542906 
L 277.019936 -73.542906 
L 273.696645 -73.357624 
L 270.373355 -73.037361 
L 267.050064 -72.43869 
L 263.726773 -71.829361 
L 260.403482 -71.829361 
L 257.080192 -71.634353 
L 253.756901 -71.027961 
L 250.43361 -70.844582 
L 247.110319 -70.257472 
L 243.787029 -70.085725 
L 240.463738 -69.911438 
L 237.140447 -69.232905 
L 233.817156 -68.992569 
L 230.493866 -68.992569 
L 227.170575 -68.569846 
L 223.847284 -66.813003 
L 220.523993 -66.085912 
L 217.200702 -66.085912 
L 213.877412 -66.085912 
L 210.554121 -65.804094 
L 207.23083 -65.804094 
L 203.907539 -65.540142 
L 200.584249 -65.102894 
L 197.260958 -64.671555 
L 193.937667 -64.442691 
L 190.614376 -64.047756 
L 187.291086 -63.661976 
L 183.967795 -63.661976 
L 180.644504 -63.661976 
L 177.321213 -63.25691 
L 173.997923 -63.040021 
L 170.674632 -62.436091 
L 167.351341 -62.436091 
L 164.02805 -61.751782 
L 160.70476 -61.376054 
L 157.381469 -61.376054 
L 154.058178 -60.840736 
L 150.734887 -60.419871 
L 147.411597 -60.419871 
L 144.088306 -60.139081 
L 140.765015 -59.733696 
L 137.441724 -59.332702 
L 134.118434 -59.332702 
L 130.795143 -59.332702 
L 127.471852 -59.332702 
L 124.148561 -59.332702 
L 120.82527 -59.332702 
L 117.50198 -58.706834 
L 114.178689 -58.322862 
L 110.855398 -57.925607 
L 107.532107 -57.557857 
L 104.208817 -57.221647 
L 100.885526 -57.221647 
L 97.562235 -57.221647 
L 94.238944 -57.221647 
L 90.915654 -56.853224 
L 87.592363 -56.534343 
L 84.269072 -56.299879 
L 80.945781 -55.912485 
L 77.622491 -55.194545 
L 74.2992 -55.194545 
L 70.975909 -55.194545 
z
" style="stroke: #e377c2; stroke-opacity: 0.5"/>
    </defs>
    <g clip-path="url(#pae91896a5a)">
     <use xlink:href="#m2d0e683b8b" x="0" y="360" style="fill: #e377c2; fill-opacity: 0.5; stroke: #e377c2; stroke-opacity: 0.5"/>
    </g>
   </g>
   <g id="PolyCollection_2">
    <defs>
     <path id="m28b6efaa5e" d="M 70.975909 -55.194545 
L 70.975909 -55.194545 
L 74.2992 -55.194545 
L 77.622491 -55.194545 
L 80.945781 -55.450335 
L 84.269072 -55.823727 
L 87.592363 -56.336916 
L 90.915654 -56.884783 
L 94.238944 -57.311235 
L 97.562235 -58.009464 
L 100.885526 -58.548367 
L 104.208817 -59.061007 
L 107.532107 -59.707653 
L 110.855398 -60.139987 
L 114.178689 -61.074384 
L 117.50198 -61.857177 
L 120.82527 -62.541919 
L 124.148561 -63.394255 
L 127.471852 -64.218761 
L 130.795143 -64.909761 
L 134.118434 -65.728967 
L 137.441724 -66.982987 
L 140.765015 -67.987978 
L 144.088306 -69.35891 
L 147.411597 -70.070501 
L 150.734887 -71.708024 
L 154.058178 -72.88371 
L 157.381469 -74.446331 
L 160.70476 -75.618264 
L 164.02805 -76.561949 
L 167.351341 -77.454081 
L 170.674632 -78.327888 
L 173.997923 -79.79491 
L 177.321213 -81.138557 
L 180.644504 -82.51137 
L 183.967795 -83.744909 
L 187.291086 -83.889023 
L 190.614376 -85.512245 
L 193.937667 -86.529712 
L 197.260958 -88.610143 
L 200.584249 -89.942943 
L 203.907539 -91.522956 
L 207.23083 -93.131275 
L 210.554121 -94.21803 
L 213.877412 -96.013229 
L 217.200702 -97.717056 
L 220.523993 -99.183561 
L 223.847284 -101.107629 
L 227.170575 -102.385089 
L 230.493866 -104.242448 
L 233.817156 -105.572832 
L 237.140447 -107.506382 
L 240.463738 -109.366033 
L 243.787029 -110.738964 
L 247.110319 -112.270651 
L 250.43361 -114.099646 
L 253.756901 -115.224708 
L 257.080192 -116.927942 
L 260.403482 -115.994842 
L 263.726773 -118.176473 
L 267.050064 -121.152864 
L 270.373355 -125.401797 
L 273.696645 -126.695239 
L 277.019936 -128.649394 
L 280.343227 -127.34131 
L 283.666518 -129.069167 
L 286.989808 -130.418524 
L 290.313099 -132.571887 
L 293.63639 -134.194515 
L 296.959681 -136.360434 
L 300.282971 -141.28698 
L 303.606262 -144.828273 
L 306.929553 -146.456942 
L 310.252844 -149.493581 
L 313.576134 -146.781369 
L 316.899425 -138.036834 
L 320.222716 -132.645065 
L 323.546007 -134.534295 
L 326.869298 -135.489291 
L 330.192588 -137.278484 
L 333.515879 -138.559174 
L 336.83917 -140.027465 
L 340.162461 -143.915306 
L 343.485751 -143.44017 
L 346.809042 -144.300285 
L 350.132333 -145.773056 
L 353.455624 -147.644272 
L 356.778914 -149.117292 
L 360.102205 -149.734892 
L 363.425496 -150.346126 
L 366.748787 -151.207246 
L 370.072077 -152.51482 
L 373.395368 -153.813445 
L 376.718659 -156.903709 
L 380.04195 -119.510311 
L 383.36524 -119.676551 
L 386.688531 -201.71987 
L 390.011822 -204.083182 
L 393.335113 -206.446494 
L 396.658403 -208.809805 
L 399.981694 -208.809805 
L 403.304985 -211.173117 
L 406.628276 -213.536429 
L 409.951566 -215.89974 
L 413.274857 -218.263052 
L 416.598148 -218.263052 
L 419.921439 -220.626364 
L 423.24473 -220.626364 
L 423.24473 -319.885455 
L 423.24473 -319.885455 
L 419.921439 -315.158831 
L 416.598148 -315.158831 
L 413.274857 -312.795519 
L 409.951566 -308.068896 
L 406.628276 -308.068896 
L 403.304985 -308.068896 
L 399.981694 -305.705584 
L 396.658403 -303.342273 
L 393.335113 -298.615649 
L 390.011822 -291.525714 
L 386.688531 -286.799091 
L 383.36524 -249.101285 
L 380.04195 -247.691984 
L 376.718659 -227.629538 
L 373.395368 -225.993178 
L 370.072077 -224.455829 
L 366.748787 -222.927429 
L 363.425496 -221.8979 
L 360.102205 -220.618485 
L 356.778914 -219.345436 
L 353.455624 -217.037156 
L 350.132333 -203.310515 
L 346.809042 -200.844434 
L 343.485751 -200.129007 
L 340.162461 -191.326011 
L 336.83917 -187.786302 
L 333.515879 -185.878432 
L 330.192588 -183.782963 
L 326.869298 -181.520764 
L 323.546007 -180.450065 
L 320.222716 -177.612671 
L 316.899425 -177.369546 
L 313.576134 -187.859742 
L 310.252844 -185.882783 
L 306.929553 -177.489586 
L 303.606262 -175.680712 
L 300.282971 -169.589719 
L 296.959681 -163.457178 
L 293.63639 -158.507192 
L 290.313099 -156.753661 
L 286.989808 -154.1804 
L 283.666518 -152.828829 
L 280.343227 -150.84291 
L 277.019936 -150.322597 
L 273.696645 -147.23502 
L 270.373355 -145.692488 
L 267.050064 -139.601933 
L 263.726773 -135.679539 
L 260.403482 -132.856511 
L 257.080192 -133.159129 
L 253.756901 -130.92351 
L 250.43361 -129.68526 
L 247.110319 -127.575402 
L 243.787029 -125.956007 
L 240.463738 -124.177856 
L 237.140447 -121.836064 
L 233.817156 -119.001529 
L 230.493866 -117.346677 
L 227.170575 -114.974952 
L 223.847284 -113.515946 
L 220.523993 -110.962161 
L 217.200702 -109.19466 
L 213.877412 -107.166942 
L 210.554121 -105.230596 
L 207.23083 -103.829655 
L 203.907539 -102.203968 
L 200.584249 -100.052436 
L 197.260958 -98.400001 
L 193.937667 -96.002578 
L 190.614376 -94.781118 
L 187.291086 -92.921565 
L 183.967795 -92.344247 
L 180.644504 -90.741812 
L 177.321213 -89.04232 
L 173.997923 -87.549992 
L 170.674632 -85.944709 
L 167.351341 -84.691536 
L 164.02805 -83.693019 
L 160.70476 -82.509723 
L 157.381469 -81.082013 
L 154.058178 -79.099667 
L 150.734887 -77.67571 
L 147.411597 -76.004596 
L 144.088306 -75.061869 
L 140.765015 -73.360496 
L 137.441724 -72.238507 
L 134.118434 -70.656553 
L 130.795143 -69.585109 
L 127.471852 -68.621791 
L 124.148561 -67.555648 
L 120.82527 -66.281003 
L 117.50198 -65.311427 
L 114.178689 -64.203571 
L 110.855398 -63.010987 
L 107.532107 -62.261665 
L 104.208817 -61.253993 
L 100.885526 -60.584977 
L 97.562235 -59.705893 
L 94.238944 -58.749804 
L 90.915654 -57.9946 
L 87.592363 -57.12448 
L 84.269072 -56.456013 
L 80.945781 -55.88408 
L 77.622491 -55.194545 
L 74.2992 -55.194545 
L 70.975909 -55.194545 
z
" style="stroke: #2ca02c; stroke-opacity: 0.5"/>
    </defs>
    <g clip-path="url(#pae91896a5a)">
     <use xlink:href="#m28b6efaa5e" x="0" y="360" style="fill: #2ca02c; fill-opacity: 0.5; stroke: #2ca02c; stroke-opacity: 0.5"/>
    </g>
   </g>
   <g id="matplotlib.axis_1">
    <g id="xtick_1">
     <g id="line2d_1">
      <defs>
       <path id="m0698e26716" d="M 0 0 
L 0 3.5 
" style="stroke: #000000; stroke-width: 0.8"/>
      </defs>
      <g>
       <use xlink:href="#m0698e26716" x="70.975909" y="318.04" style="stroke: #000000; stroke-width: 0.8"/>
      </g>
     </g>
     <g id="text_1">
      <!-- 28h13 -->
      <g transform="translate(55.082159 332.638438) scale(0.1 -0.1)">
       <defs>
        <path id="DejaVuSans-32" d="M 1228 531 
L 3431 531 
L 3431 0 
L 469 0 
L 469 531 
Q 828 903 1448 1529 
Q 2069 2156 2228 2338 
Q 2531 2678 2651 2914 
Q 2772 3150 2772 3378 
Q 2772 3750 2511 3984 
Q 2250 4219 1831 4219 
Q 1534 4219 1204 4116 
Q 875 4013 500 3803 
L 500 4441 
Q 881 4594 1212 4672 
Q 1544 4750 1819 4750 
Q 2544 4750 2975 4387 
Q 3406 4025 3406 3419 
Q 3406 3131 3298 2873 
Q 3191 2616 2906 2266 
Q 2828 2175 2409 1742 
Q 1991 1309 1228 531 
z
" transform="scale(0.015625)"/>
        <path id="DejaVuSans-38" d="M 2034 2216 
Q 1584 2216 1326 1975 
Q 1069 1734 1069 1313 
Q 1069 891 1326 650 
Q 1584 409 2034 409 
Q 2484 409 2743 651 
Q 3003 894 3003 1313 
Q 3003 1734 2745 1975 
Q 2488 2216 2034 2216 
z
M 1403 2484 
Q 997 2584 770 2862 
Q 544 3141 544 3541 
Q 544 4100 942 4425 
Q 1341 4750 2034 4750 
Q 2731 4750 3128 4425 
Q 3525 4100 3525 3541 
Q 3525 3141 3298 2862 
Q 3072 2584 2669 2484 
Q 3125 2378 3379 2068 
Q 3634 1759 3634 1313 
Q 3634 634 3220 271 
Q 2806 -91 2034 -91 
Q 1263 -91 848 271 
Q 434 634 434 1313 
Q 434 1759 690 2068 
Q 947 2378 1403 2484 
z
M 1172 3481 
Q 1172 3119 1398 2916 
Q 1625 2713 2034 2713 
Q 2441 2713 2670 2916 
Q 2900 3119 2900 3481 
Q 2900 3844 2670 4047 
Q 2441 4250 2034 4250 
Q 1625 4250 1398 4047 
Q 1172 3844 1172 3481 
z
" transform="scale(0.015625)"/>
        <path id="DejaVuSans-68" d="M 3513 2113 
L 3513 0 
L 2938 0 
L 2938 2094 
Q 2938 2591 2744 2837 
Q 2550 3084 2163 3084 
Q 1697 3084 1428 2787 
Q 1159 2491 1159 1978 
L 1159 0 
L 581 0 
L 581 4863 
L 1159 4863 
L 1159 2956 
Q 1366 3272 1645 3428 
Q 1925 3584 2291 3584 
Q 2894 3584 3203 3211 
Q 3513 2838 3513 2113 
z
" transform="scale(0.015625)"/>
        <path id="DejaVuSans-31" d="M 794 531 
L 1825 531 
L 1825 4091 
L 703 3866 
L 703 4441 
L 1819 4666 
L 2450 4666 
L 2450 531 
L 3481 531 
L 3481 0 
L 794 0 
L 794 531 
z
" transform="scale(0.015625)"/>
        <path id="DejaVuSans-33" d="M 2597 2516 
Q 3050 2419 3304 2112 
Q 3559 1806 3559 1356 
Q 3559 666 3084 287 
Q 2609 -91 1734 -91 
Q 1441 -91 1130 -33 
Q 819 25 488 141 
L 488 750 
Q 750 597 1062 519 
Q 1375 441 1716 441 
Q 2309 441 2620 675 
Q 2931 909 2931 1356 
Q 2931 1769 2642 2001 
Q 2353 2234 1838 2234 
L 1294 2234 
L 1294 2753 
L 1863 2753 
Q 2328 2753 2575 2939 
Q 2822 3125 2822 3475 
Q 2822 3834 2567 4026 
Q 2313 4219 1838 4219 
Q 1578 4219 1281 4162 
Q 984 4106 628 3988 
L 628 4550 
Q 988 4650 1302 4700 
Q 1616 4750 1894 4750 
Q 2613 4750 3031 4423 
Q 3450 4097 3450 3541 
Q 3450 3153 3228 2886 
Q 3006 2619 2597 2516 
z
" transform="scale(0.015625)"/>
       </defs>
       <use xlink:href="#DejaVuSans-32"/>
       <use xlink:href="#DejaVuSans-38" x="63.623047"/>
       <use xlink:href="#DejaVuSans-68" x="127.246094"/>
       <use xlink:href="#DejaVuSans-31" x="190.625"/>
       <use xlink:href="#DejaVuSans-33" x="254.248047"/>
      </g>
     </g>
    </g>
    <g id="xtick_2">
     <g id="line2d_2">
      <g>
       <use xlink:href="#m0698e26716" x="120.82527" y="318.04" style="stroke: #000000; stroke-width: 0.8"/>
      </g>
     </g>
     <g id="text_2">
      <!-- 29h36 -->
      <g transform="translate(104.93152 332.638438) scale(0.1 -0.1)">
       <defs>
        <path id="DejaVuSans-39" d="M 703 97 
L 703 672 
Q 941 559 1184 500 
Q 1428 441 1663 441 
Q 2288 441 2617 861 
Q 2947 1281 2994 2138 
Q 2813 1869 2534 1725 
Q 2256 1581 1919 1581 
Q 1219 1581 811 2004 
Q 403 2428 403 3163 
Q 403 3881 828 4315 
Q 1253 4750 1959 4750 
Q 2769 4750 3195 4129 
Q 3622 3509 3622 2328 
Q 3622 1225 3098 567 
Q 2575 -91 1691 -91 
Q 1453 -91 1209 -44 
Q 966 3 703 97 
z
M 1959 2075 
Q 2384 2075 2632 2365 
Q 2881 2656 2881 3163 
Q 2881 3666 2632 3958 
Q 2384 4250 1959 4250 
Q 1534 4250 1286 3958 
Q 1038 3666 1038 3163 
Q 1038 2656 1286 2365 
Q 1534 2075 1959 2075 
z
" transform="scale(0.015625)"/>
        <path id="DejaVuSans-36" d="M 2113 2584 
Q 1688 2584 1439 2293 
Q 1191 2003 1191 1497 
Q 1191 994 1439 701 
Q 1688 409 2113 409 
Q 2538 409 2786 701 
Q 3034 994 3034 1497 
Q 3034 2003 2786 2293 
Q 2538 2584 2113 2584 
z
M 3366 4563 
L 3366 3988 
Q 3128 4100 2886 4159 
Q 2644 4219 2406 4219 
Q 1781 4219 1451 3797 
Q 1122 3375 1075 2522 
Q 1259 2794 1537 2939 
Q 1816 3084 2150 3084 
Q 2853 3084 3261 2657 
Q 3669 2231 3669 1497 
Q 3669 778 3244 343 
Q 2819 -91 2113 -91 
Q 1303 -91 875 529 
Q 447 1150 447 2328 
Q 447 3434 972 4092 
Q 1497 4750 2381 4750 
Q 2619 4750 2861 4703 
Q 3103 4656 3366 4563 
z
" transform="scale(0.015625)"/>
       </defs>
       <use xlink:href="#DejaVuSans-32"/>
       <use xlink:href="#DejaVuSans-39" x="63.623047"/>
       <use xlink:href="#DejaVuSans-68" x="127.246094"/>
       <use xlink:href="#DejaVuSans-33" x="190.625"/>
       <use xlink:href="#DejaVuSans-36" x="254.248047"/>
      </g>
     </g>
    </g>
    <g id="xtick_3">
     <g id="line2d_3">
      <g>
       <use xlink:href="#m0698e26716" x="170.674632" y="318.04" style="stroke: #000000; stroke-width: 0.8"/>
      </g>
     </g>
     <g id="text_3">
      <!-- 30h59 -->
      <g transform="translate(154.780882 332.638438) scale(0.1 -0.1)">
       <defs>
        <path id="DejaVuSans-30" d="M 2034 4250 
Q 1547 4250 1301 3770 
Q 1056 3291 1056 2328 
Q 1056 1369 1301 889 
Q 1547 409 2034 409 
Q 2525 409 2770 889 
Q 3016 1369 3016 2328 
Q 3016 3291 2770 3770 
Q 2525 4250 2034 4250 
z
M 2034 4750 
Q 2819 4750 3233 4129 
Q 3647 3509 3647 2328 
Q 3647 1150 3233 529 
Q 2819 -91 2034 -91 
Q 1250 -91 836 529 
Q 422 1150 422 2328 
Q 422 3509 836 4129 
Q 1250 4750 2034 4750 
z
" transform="scale(0.015625)"/>
        <path id="DejaVuSans-35" d="M 691 4666 
L 3169 4666 
L 3169 4134 
L 1269 4134 
L 1269 2991 
Q 1406 3038 1543 3061 
Q 1681 3084 1819 3084 
Q 2600 3084 3056 2656 
Q 3513 2228 3513 1497 
Q 3513 744 3044 326 
Q 2575 -91 1722 -91 
Q 1428 -91 1123 -41 
Q 819 9 494 109 
L 494 744 
Q 775 591 1075 516 
Q 1375 441 1709 441 
Q 2250 441 2565 725 
Q 2881 1009 2881 1497 
Q 2881 1984 2565 2268 
Q 2250 2553 1709 2553 
Q 1456 2553 1204 2497 
Q 953 2441 691 2322 
L 691 4666 
z
" transform="scale(0.015625)"/>
       </defs>
       <use xlink:href="#DejaVuSans-33"/>
       <use xlink:href="#DejaVuSans-30" x="63.623047"/>
       <use xlink:href="#DejaVuSans-68" x="127.246094"/>
       <use xlink:href="#DejaVuSans-35" x="190.625"/>
       <use xlink:href="#DejaVuSans-39" x="254.248047"/>
      </g>
     </g>
    </g>
    <g id="xtick_4">
     <g id="line2d_4">
      <g>
       <use xlink:href="#m0698e26716" x="220.523993" y="318.04" style="stroke: #000000; stroke-width: 0.8"/>
      </g>
     </g>
     <g id="text_4">
      <!-- 32h23 -->
      <g transform="translate(204.630243 332.638438) scale(0.1 -0.1)">
       <use xlink:href="#DejaVuSans-33"/>
       <use xlink:href="#DejaVuSans-32" x="63.623047"/>
       <use xlink:href="#DejaVuSans-68" x="127.246094"/>
       <use xlink:href="#DejaVuSans-32" x="190.625"/>
       <use xlink:href="#DejaVuSans-33" x="254.248047"/>
      </g>
     </g>
    </g>
    <g id="xtick_5">
     <g id="line2d_5">
      <g>
       <use xlink:href="#m0698e26716" x="270.373355" y="318.04" style="stroke: #000000; stroke-width: 0.8"/>
      </g>
     </g>
     <g id="text_5">
      <!-- 33h46 -->
      <g transform="translate(254.479605 332.638438) scale(0.1 -0.1)">
       <defs>
        <path id="DejaVuSans-34" d="M 2419 4116 
L 825 1625 
L 2419 1625 
L 2419 4116 
z
M 2253 4666 
L 3047 4666 
L 3047 1625 
L 3713 1625 
L 3713 1100 
L 3047 1100 
L 3047 0 
L 2419 0 
L 2419 1100 
L 313 1100 
L 313 1709 
L 2253 4666 
z
" transform="scale(0.015625)"/>
       </defs>
       <use xlink:href="#DejaVuSans-33"/>
       <use xlink:href="#DejaVuSans-33" x="63.623047"/>
       <use xlink:href="#DejaVuSans-68" x="127.246094"/>
       <use xlink:href="#DejaVuSans-34" x="190.625"/>
       <use xlink:href="#DejaVuSans-36" x="254.248047"/>
      </g>
     </g>
    </g>
    <g id="xtick_6">
     <g id="line2d_6">
      <g>
       <use xlink:href="#m0698e26716" x="320.222716" y="318.04" style="stroke: #000000; stroke-width: 0.8"/>
      </g>
     </g>
     <g id="text_6">
      <!-- 35h09 -->
      <g transform="translate(304.328966 332.638438) scale(0.1 -0.1)">
       <use xlink:href="#DejaVuSans-33"/>
       <use xlink:href="#DejaVuSans-35" x="63.623047"/>
       <use xlink:href="#DejaVuSans-68" x="127.246094"/>
       <use xlink:href="#DejaVuSans-30" x="190.625"/>
       <use xlink:href="#DejaVuSans-39" x="254.248047"/>
      </g>
     </g>
    </g>
    <g id="xtick_7">
     <g id="line2d_7">
      <g>
       <use xlink:href="#m0698e26716" x="370.072077" y="318.04" style="stroke: #000000; stroke-width: 0.8"/>
      </g>
     </g>
     <g id="text_7">
      <!-- 36h33 -->
      <g transform="translate(354.178327 332.638438) scale(0.1 -0.1)">
       <use xlink:href="#DejaVuSans-33"/>
       <use xlink:href="#DejaVuSans-36" x="63.623047"/>
       <use xlink:href="#DejaVuSans-68" x="127.246094"/>
       <use xlink:href="#DejaVuSans-33" x="190.625"/>
       <use xlink:href="#DejaVuSans-33" x="254.248047"/>
      </g>
     </g>
    </g>
    <g id="xtick_8">
     <g id="line2d_8">
      <g>
       <use xlink:href="#m0698e26716" x="419.921439" y="318.04" style="stroke: #000000; stroke-width: 0.8"/>
      </g>
     </g>
     <g id="text_8">
      <!-- 37h56 -->
      <g transform="translate(404.027689 332.638438) scale(0.1 -0.1)">
       <defs>
        <path id="DejaVuSans-37" d="M 525 4666 
L 3525 4666 
L 3525 4397 
L 1831 0 
L 1172 0 
L 2766 4134 
L 525 4134 
L 525 4666 
z
" transform="scale(0.015625)"/>
       </defs>
       <use xlink:href="#DejaVuSans-33"/>
       <use xlink:href="#DejaVuSans-37" x="63.623047"/>
       <use xlink:href="#DejaVuSans-68" x="127.246094"/>
       <use xlink:href="#DejaVuSans-35" x="190.625"/>
       <use xlink:href="#DejaVuSans-36" x="254.248047"/>
      </g>
     </g>
    </g>
    <g id="text_9">
     <!-- Developmental timing (hAPF) -->
     <g transform="translate(198.41 346.316563) scale(0.1 -0.1)">
      <defs>
       <path id="DejaVuSans-44" d="M 1259 4147 
L 1259 519 
L 2022 519 
Q 2988 519 3436 956 
Q 3884 1394 3884 2338 
Q 3884 3275 3436 3711 
Q 2988 4147 2022 4147 
L 1259 4147 
z
M 628 4666 
L 1925 4666 
Q 3281 4666 3915 4102 
Q 4550 3538 4550 2338 
Q 4550 1131 3912 565 
Q 3275 0 1925 0 
L 628 0 
L 628 4666 
z
" transform="scale(0.015625)"/>
       <path id="DejaVuSans-65" d="M 3597 1894 
L 3597 1613 
L 953 1613 
Q 991 1019 1311 708 
Q 1631 397 2203 397 
Q 2534 397 2845 478 
Q 3156 559 3463 722 
L 3463 178 
Q 3153 47 2828 -22 
Q 2503 -91 2169 -91 
Q 1331 -91 842 396 
Q 353 884 353 1716 
Q 353 2575 817 3079 
Q 1281 3584 2069 3584 
Q 2775 3584 3186 3129 
Q 3597 2675 3597 1894 
z
M 3022 2063 
Q 3016 2534 2758 2815 
Q 2500 3097 2075 3097 
Q 1594 3097 1305 2825 
Q 1016 2553 972 2059 
L 3022 2063 
z
" transform="scale(0.015625)"/>
       <path id="DejaVuSans-76" d="M 191 3500 
L 800 3500 
L 1894 563 
L 2988 3500 
L 3597 3500 
L 2284 0 
L 1503 0 
L 191 3500 
z
" transform="scale(0.015625)"/>
       <path id="DejaVuSans-6c" d="M 603 4863 
L 1178 4863 
L 1178 0 
L 603 0 
L 603 4863 
z
" transform="scale(0.015625)"/>
       <path id="DejaVuSans-6f" d="M 1959 3097 
Q 1497 3097 1228 2736 
Q 959 2375 959 1747 
Q 959 1119 1226 758 
Q 1494 397 1959 397 
Q 2419 397 2687 759 
Q 2956 1122 2956 1747 
Q 2956 2369 2687 2733 
Q 2419 3097 1959 3097 
z
M 1959 3584 
Q 2709 3584 3137 3096 
Q 3566 2609 3566 1747 
Q 3566 888 3137 398 
Q 2709 -91 1959 -91 
Q 1206 -91 779 398 
Q 353 888 353 1747 
Q 353 2609 779 3096 
Q 1206 3584 1959 3584 
z
" transform="scale(0.015625)"/>
       <path id="DejaVuSans-70" d="M 1159 525 
L 1159 -1331 
L 581 -1331 
L 581 3500 
L 1159 3500 
L 1159 2969 
Q 1341 3281 1617 3432 
Q 1894 3584 2278 3584 
Q 2916 3584 3314 3078 
Q 3713 2572 3713 1747 
Q 3713 922 3314 415 
Q 2916 -91 2278 -91 
Q 1894 -91 1617 61 
Q 1341 213 1159 525 
z
M 3116 1747 
Q 3116 2381 2855 2742 
Q 2594 3103 2138 3103 
Q 1681 3103 1420 2742 
Q 1159 2381 1159 1747 
Q 1159 1113 1420 752 
Q 1681 391 2138 391 
Q 2594 391 2855 752 
Q 3116 1113 3116 1747 
z
" transform="scale(0.015625)"/>
       <path id="DejaVuSans-6d" d="M 3328 2828 
Q 3544 3216 3844 3400 
Q 4144 3584 4550 3584 
Q 5097 3584 5394 3201 
Q 5691 2819 5691 2113 
L 5691 0 
L 5113 0 
L 5113 2094 
Q 5113 2597 4934 2840 
Q 4756 3084 4391 3084 
Q 3944 3084 3684 2787 
Q 3425 2491 3425 1978 
L 3425 0 
L 2847 0 
L 2847 2094 
Q 2847 2600 2669 2842 
Q 2491 3084 2119 3084 
Q 1678 3084 1418 2786 
Q 1159 2488 1159 1978 
L 1159 0 
L 581 0 
L 581 3500 
L 1159 3500 
L 1159 2956 
Q 1356 3278 1631 3431 
Q 1906 3584 2284 3584 
Q 2666 3584 2933 3390 
Q 3200 3197 3328 2828 
z
" transform="scale(0.015625)"/>
       <path id="DejaVuSans-6e" d="M 3513 2113 
L 3513 0 
L 2938 0 
L 2938 2094 
Q 2938 2591 2744 2837 
Q 2550 3084 2163 3084 
Q 1697 3084 1428 2787 
Q 1159 2491 1159 1978 
L 1159 0 
L 581 0 
L 581 3500 
L 1159 3500 
L 1159 2956 
Q 1366 3272 1645 3428 
Q 1925 3584 2291 3584 
Q 2894 3584 3203 3211 
Q 3513 2838 3513 2113 
z
" transform="scale(0.015625)"/>
       <path id="DejaVuSans-74" d="M 1172 4494 
L 1172 3500 
L 2356 3500 
L 2356 3053 
L 1172 3053 
L 1172 1153 
Q 1172 725 1289 603 
Q 1406 481 1766 481 
L 2356 481 
L 2356 0 
L 1766 0 
Q 1100 0 847 248 
Q 594 497 594 1153 
L 594 3053 
L 172 3053 
L 172 3500 
L 594 3500 
L 594 4494 
L 1172 4494 
z
" transform="scale(0.015625)"/>
       <path id="DejaVuSans-61" d="M 2194 1759 
Q 1497 1759 1228 1600 
Q 959 1441 959 1056 
Q 959 750 1161 570 
Q 1363 391 1709 391 
Q 2188 391 2477 730 
Q 2766 1069 2766 1631 
L 2766 1759 
L 2194 1759 
z
M 3341 1997 
L 3341 0 
L 2766 0 
L 2766 531 
Q 2569 213 2275 61 
Q 1981 -91 1556 -91 
Q 1019 -91 701 211 
Q 384 513 384 1019 
Q 384 1609 779 1909 
Q 1175 2209 1959 2209 
L 2766 2209 
L 2766 2266 
Q 2766 2663 2505 2880 
Q 2244 3097 1772 3097 
Q 1472 3097 1187 3025 
Q 903 2953 641 2809 
L 641 3341 
Q 956 3463 1253 3523 
Q 1550 3584 1831 3584 
Q 2591 3584 2966 3190 
Q 3341 2797 3341 1997 
z
" transform="scale(0.015625)"/>
       <path id="DejaVuSans-20" transform="scale(0.015625)"/>
       <path id="DejaVuSans-69" d="M 603 3500 
L 1178 3500 
L 1178 0 
L 603 0 
L 603 3500 
z
M 603 4863 
L 1178 4863 
L 1178 4134 
L 603 4134 
L 603 4863 
z
" transform="scale(0.015625)"/>
       <path id="DejaVuSans-67" d="M 2906 1791 
Q 2906 2416 2648 2759 
Q 2391 3103 1925 3103 
Q 1463 3103 1205 2759 
Q 947 2416 947 1791 
Q 947 1169 1205 825 
Q 1463 481 1925 481 
Q 2391 481 2648 825 
Q 2906 1169 2906 1791 
z
M 3481 434 
Q 3481 -459 3084 -895 
Q 2688 -1331 1869 -1331 
Q 1566 -1331 1297 -1286 
Q 1028 -1241 775 -1147 
L 775 -588 
Q 1028 -725 1275 -790 
Q 1522 -856 1778 -856 
Q 2344 -856 2625 -561 
Q 2906 -266 2906 331 
L 2906 616 
Q 2728 306 2450 153 
Q 2172 0 1784 0 
Q 1141 0 747 490 
Q 353 981 353 1791 
Q 353 2603 747 3093 
Q 1141 3584 1784 3584 
Q 2172 3584 2450 3431 
Q 2728 3278 2906 2969 
L 2906 3500 
L 3481 3500 
L 3481 434 
z
" transform="scale(0.015625)"/>
       <path id="DejaVuSans-28" d="M 1984 4856 
Q 1566 4138 1362 3434 
Q 1159 2731 1159 2009 
Q 1159 1288 1364 580 
Q 1569 -128 1984 -844 
L 1484 -844 
Q 1016 -109 783 600 
Q 550 1309 550 2009 
Q 550 2706 781 3412 
Q 1013 4119 1484 4856 
L 1984 4856 
z
" transform="scale(0.015625)"/>
       <path id="DejaVuSans-41" d="M 2188 4044 
L 1331 1722 
L 3047 1722 
L 2188 4044 
z
M 1831 4666 
L 2547 4666 
L 4325 0 
L 3669 0 
L 3244 1197 
L 1141 1197 
L 716 0 
L 50 0 
L 1831 4666 
z
" transform="scale(0.015625)"/>
       <path id="DejaVuSans-50" d="M 1259 4147 
L 1259 2394 
L 2053 2394 
Q 2494 2394 2734 2622 
Q 2975 2850 2975 3272 
Q 2975 3691 2734 3919 
Q 2494 4147 2053 4147 
L 1259 4147 
z
M 628 4666 
L 2053 4666 
Q 2838 4666 3239 4311 
Q 3641 3956 3641 3272 
Q 3641 2581 3239 2228 
Q 2838 1875 2053 1875 
L 1259 1875 
L 1259 0 
L 628 0 
L 628 4666 
z
" transform="scale(0.015625)"/>
       <path id="DejaVuSans-46" d="M 628 4666 
L 3309 4666 
L 3309 4134 
L 1259 4134 
L 1259 2759 
L 3109 2759 
L 3109 2228 
L 1259 2228 
L 1259 0 
L 628 0 
L 628 4666 
z
" transform="scale(0.015625)"/>
       <path id="DejaVuSans-29" d="M 513 4856 
L 1013 4856 
Q 1481 4119 1714 3412 
Q 1947 2706 1947 2009 
Q 1947 1309 1714 600 
Q 1481 -109 1013 -844 
L 513 -844 
Q 928 -128 1133 580 
Q 1338 1288 1338 2009 
Q 1338 2731 1133 3434 
Q 928 4138 513 4856 
z
" transform="scale(0.015625)"/>
      </defs>
      <use xlink:href="#DejaVuSans-44"/>
      <use xlink:href="#DejaVuSans-65" x="77.001953"/>
      <use xlink:href="#DejaVuSans-76" x="138.525391"/>
      <use xlink:href="#DejaVuSans-65" x="197.705078"/>
      <use xlink:href="#DejaVuSans-6c" x="259.228516"/>
      <use xlink:href="#DejaVuSans-6f" x="287.011719"/>
      <use xlink:href="#DejaVuSans-70" x="348.193359"/>
      <use xlink:href="#DejaVuSans-6d" x="411.669922"/>
      <use xlink:href="#DejaVuSans-65" x="509.082031"/>
      <use xlink:href="#DejaVuSans-6e" x="570.605469"/>
      <use xlink:href="#DejaVuSans-74" x="633.984375"/>
      <use xlink:href="#DejaVuSans-61" x="673.193359"/>
      <use xlink:href="#DejaVuSans-6c" x="734.472656"/>
      <use xlink:href="#DejaVuSans-20" x="762.255859"/>
      <use xlink:href="#DejaVuSans-74" x="794.042969"/>
      <use xlink:href="#DejaVuSans-69" x="833.251953"/>
      <use xlink:href="#DejaVuSans-6d" x="861.035156"/>
      <use xlink:href="#DejaVuSans-69" x="958.447266"/>
      <use xlink:href="#DejaVuSans-6e" x="986.230469"/>
      <use xlink:href="#DejaVuSans-67" x="1049.609375"/>
      <use xlink:href="#DejaVuSans-20" x="1113.085938"/>
      <use xlink:href="#DejaVuSans-28" x="1144.873047"/>
      <use xlink:href="#DejaVuSans-68" x="1183.886719"/>
      <use xlink:href="#DejaVuSans-41" x="1247.265625"/>
      <use xlink:href="#DejaVuSans-50" x="1315.673828"/>
      <use xlink:href="#DejaVuSans-46" x="1375.976562"/>
      <use xlink:href="#DejaVuSans-29" x="1433.496094"/>
     </g>
    </g>
   </g>
   <g id="matplotlib.axis_2">
    <g id="ytick_1">
     <g id="line2d_9">
      <defs>
       <path id="m07c3296f1d" d="M 0 0 
L -3.5 0 
" style="stroke: #000000; stroke-width: 0.8"/>
      </defs>
      <g>
       <use xlink:href="#m07c3296f1d" x="50.87" y="304.805455" style="stroke: #000000; stroke-width: 0.8"/>
      </g>
     </g>
     <g id="text_10">
      <!-- 0 -->
      <g transform="translate(37.5075 308.604673) scale(0.1 -0.1)">
       <use xlink:href="#DejaVuSans-30"/>
      </g>
     </g>
    </g>
    <g id="ytick_2">
     <g id="line2d_10">
      <g>
       <use xlink:href="#m07c3296f1d" x="50.87" y="257.539221" style="stroke: #000000; stroke-width: 0.8"/>
      </g>
     </g>
     <g id="text_11">
      <!-- 20 -->
      <g transform="translate(31.145 261.33844) scale(0.1 -0.1)">
       <use xlink:href="#DejaVuSans-32"/>
       <use xlink:href="#DejaVuSans-30" x="63.623047"/>
      </g>
     </g>
    </g>
    <g id="ytick_3">
     <g id="line2d_11">
      <g>
       <use xlink:href="#m07c3296f1d" x="50.87" y="210.272987" style="stroke: #000000; stroke-width: 0.8"/>
      </g>
     </g>
     <g id="text_12">
      <!-- 40 -->
      <g transform="translate(31.145 214.072206) scale(0.1 -0.1)">
       <use xlink:href="#DejaVuSans-34"/>
       <use xlink:href="#DejaVuSans-30" x="63.623047"/>
      </g>
     </g>
    </g>
    <g id="ytick_4">
     <g id="line2d_12">
      <g>
       <use xlink:href="#m07c3296f1d" x="50.87" y="163.006753" style="stroke: #000000; stroke-width: 0.8"/>
      </g>
     </g>
     <g id="text_13">
      <!-- 60 -->
      <g transform="translate(31.145 166.805972) scale(0.1 -0.1)">
       <use xlink:href="#DejaVuSans-36"/>
       <use xlink:href="#DejaVuSans-30" x="63.623047"/>
      </g>
     </g>
    </g>
    <g id="ytick_5">
     <g id="line2d_13">
      <g>
       <use xlink:href="#m07c3296f1d" x="50.87" y="115.740519" style="stroke: #000000; stroke-width: 0.8"/>
      </g>
     </g>
     <g id="text_14">
      <!-- 80 -->
      <g transform="translate(31.145 119.539738) scale(0.1 -0.1)">
       <use xlink:href="#DejaVuSans-38"/>
       <use xlink:href="#DejaVuSans-30" x="63.623047"/>
      </g>
     </g>
    </g>
    <g id="ytick_6">
     <g id="line2d_14">
      <g>
       <use xlink:href="#m07c3296f1d" x="50.87" y="68.474286" style="stroke: #000000; stroke-width: 0.8"/>
      </g>
     </g>
     <g id="text_15">
      <!-- 100 -->
      <g transform="translate(24.7825 72.273504) scale(0.1 -0.1)">
       <use xlink:href="#DejaVuSans-31"/>
       <use xlink:href="#DejaVuSans-30" x="63.623047"/>
       <use xlink:href="#DejaVuSans-30" x="127.246094"/>
      </g>
     </g>
    </g>
    <g id="text_16">
     <!-- Cumulative delamination number (n) -->
     <g transform="translate(18.702813 265.1225) rotate(-90) scale(0.1 -0.1)">
      <defs>
       <path id="DejaVuSans-43" d="M 4122 4306 
L 4122 3641 
Q 3803 3938 3442 4084 
Q 3081 4231 2675 4231 
Q 1875 4231 1450 3742 
Q 1025 3253 1025 2328 
Q 1025 1406 1450 917 
Q 1875 428 2675 428 
Q 3081 428 3442 575 
Q 3803 722 4122 1019 
L 4122 359 
Q 3791 134 3420 21 
Q 3050 -91 2638 -91 
Q 1578 -91 968 557 
Q 359 1206 359 2328 
Q 359 3453 968 4101 
Q 1578 4750 2638 4750 
Q 3056 4750 3426 4639 
Q 3797 4528 4122 4306 
z
" transform="scale(0.015625)"/>
       <path id="DejaVuSans-75" d="M 544 1381 
L 544 3500 
L 1119 3500 
L 1119 1403 
Q 1119 906 1312 657 
Q 1506 409 1894 409 
Q 2359 409 2629 706 
Q 2900 1003 2900 1516 
L 2900 3500 
L 3475 3500 
L 3475 0 
L 2900 0 
L 2900 538 
Q 2691 219 2414 64 
Q 2138 -91 1772 -91 
Q 1169 -91 856 284 
Q 544 659 544 1381 
z
M 1991 3584 
L 1991 3584 
z
" transform="scale(0.015625)"/>
       <path id="DejaVuSans-64" d="M 2906 2969 
L 2906 4863 
L 3481 4863 
L 3481 0 
L 2906 0 
L 2906 525 
Q 2725 213 2448 61 
Q 2172 -91 1784 -91 
Q 1150 -91 751 415 
Q 353 922 353 1747 
Q 353 2572 751 3078 
Q 1150 3584 1784 3584 
Q 2172 3584 2448 3432 
Q 2725 3281 2906 2969 
z
M 947 1747 
Q 947 1113 1208 752 
Q 1469 391 1925 391 
Q 2381 391 2643 752 
Q 2906 1113 2906 1747 
Q 2906 2381 2643 2742 
Q 2381 3103 1925 3103 
Q 1469 3103 1208 2742 
Q 947 2381 947 1747 
z
" transform="scale(0.015625)"/>
       <path id="DejaVuSans-62" d="M 3116 1747 
Q 3116 2381 2855 2742 
Q 2594 3103 2138 3103 
Q 1681 3103 1420 2742 
Q 1159 2381 1159 1747 
Q 1159 1113 1420 752 
Q 1681 391 2138 391 
Q 2594 391 2855 752 
Q 3116 1113 3116 1747 
z
M 1159 2969 
Q 1341 3281 1617 3432 
Q 1894 3584 2278 3584 
Q 2916 3584 3314 3078 
Q 3713 2572 3713 1747 
Q 3713 922 3314 415 
Q 2916 -91 2278 -91 
Q 1894 -91 1617 61 
Q 1341 213 1159 525 
L 1159 0 
L 581 0 
L 581 4863 
L 1159 4863 
L 1159 2969 
z
" transform="scale(0.015625)"/>
       <path id="DejaVuSans-72" d="M 2631 2963 
Q 2534 3019 2420 3045 
Q 2306 3072 2169 3072 
Q 1681 3072 1420 2755 
Q 1159 2438 1159 1844 
L 1159 0 
L 581 0 
L 581 3500 
L 1159 3500 
L 1159 2956 
Q 1341 3275 1631 3429 
Q 1922 3584 2338 3584 
Q 2397 3584 2469 3576 
Q 2541 3569 2628 3553 
L 2631 2963 
z
" transform="scale(0.015625)"/>
      </defs>
      <use xlink:href="#DejaVuSans-43"/>
      <use xlink:href="#DejaVuSans-75" x="69.824219"/>
      <use xlink:href="#DejaVuSans-6d" x="133.203125"/>
      <use xlink:href="#DejaVuSans-75" x="230.615234"/>
      <use xlink:href="#DejaVuSans-6c" x="293.994141"/>
      <use xlink:href="#DejaVuSans-61" x="321.777344"/>
      <use xlink:href="#DejaVuSans-74" x="383.056641"/>
      <use xlink:href="#DejaVuSans-69" x="422.265625"/>
      <use xlink:href="#DejaVuSans-76" x="450.048828"/>
      <use xlink:href="#DejaVuSans-65" x="509.228516"/>
      <use xlink:href="#DejaVuSans-20" x="570.751953"/>
      <use xlink:href="#DejaVuSans-64" x="602.539062"/>
      <use xlink:href="#DejaVuSans-65" x="666.015625"/>
      <use xlink:href="#DejaVuSans-6c" x="727.539062"/>
      <use xlink:href="#DejaVuSans-61" x="755.322266"/>
      <use xlink:href="#DejaVuSans-6d" x="816.601562"/>
      <use xlink:href="#DejaVuSans-69" x="914.013672"/>
      <use xlink:href="#DejaVuSans-6e" x="941.796875"/>
      <use xlink:href="#DejaVuSans-61" x="1005.175781"/>
      <use xlink:href="#DejaVuSans-74" x="1066.455078"/>
      <use xlink:href="#DejaVuSans-69" x="1105.664062"/>
      <use xlink:href="#DejaVuSans-6f" x="1133.447266"/>
      <use xlink:href="#DejaVuSans-6e" x="1194.628906"/>
      <use xlink:href="#DejaVuSans-20" x="1258.007812"/>
      <use xlink:href="#DejaVuSans-6e" x="1289.794922"/>
      <use xlink:href="#DejaVuSans-75" x="1353.173828"/>
      <use xlink:href="#DejaVuSans-6d" x="1416.552734"/>
      <use xlink:href="#DejaVuSans-62" x="1513.964844"/>
      <use xlink:href="#DejaVuSans-65" x="1577.441406"/>
      <use xlink:href="#DejaVuSans-72" x="1638.964844"/>
      <use xlink:href="#DejaVuSans-20" x="1680.078125"/>
      <use xlink:href="#DejaVuSans-28" x="1711.865234"/>
      <use xlink:href="#DejaVuSans-6e" x="1750.878906"/>
      <use xlink:href="#DejaVuSans-29" x="1814.257812"/>
     </g>
    </g>
   </g>
   <g id="line2d_15">
    <path d="M 70.975909 304.805455 
L 74.2992 304.805455 
L 77.622491 304.805455 
L 80.945781 304.375762 
L 84.269072 304.160915 
L 87.592363 303.946068 
L 90.915654 303.731222 
L 94.238944 303.516375 
L 97.562235 303.516375 
L 100.885526 303.516375 
L 104.208817 303.516375 
L 107.532107 303.301529 
L 110.855398 303.086682 
L 114.178689 302.656989 
L 117.50198 302.442143 
L 120.82527 302.01245 
L 124.148561 302.01245 
L 127.471852 302.01245 
L 130.795143 302.01245 
L 134.118434 302.01245 
L 137.441724 302.01245 
L 140.765015 301.797603 
L 144.088306 301.36791 
L 147.411597 301.153064 
L 150.734887 301.153064 
L 154.058178 300.723371 
L 157.381469 300.293678 
L 160.70476 300.293678 
L 164.02805 300.078831 
L 167.351341 299.649138 
L 170.674632 299.649138 
L 173.997923 299.219445 
L 177.321213 299.004599 
L 180.644504 298.574906 
L 183.967795 298.574906 
L 187.291086 298.574906 
L 190.614376 298.360059 
L 193.937667 297.930366 
L 197.260958 297.951851 
L 200.584249 297.715519 
L 203.907539 297.479188 
L 207.23083 297.242857 
L 210.554121 297.242857 
L 213.877412 297.006526 
L 217.200702 297.006526 
L 220.523993 297.006526 
L 223.847284 296.533864 
L 227.170575 295.115877 
L 230.493866 294.879545 
L 233.817156 294.879545 
L 237.140447 294.643214 
L 240.463738 294.170552 
L 243.787029 293.934221 
L 247.110319 293.69789 
L 250.43361 293.225227 
L 253.756901 292.988896 
L 257.080192 292.516234 
L 260.403482 292.279903 
L 263.726773 292.279903 
L 267.050064 291.80724 
L 270.373355 291.098247 
L 273.696645 290.861916 
L 277.019936 290.625584 
L 280.343227 290.625584 
L 283.666518 290.152922 
L 286.989808 289.443929 
L 290.313099 289.443929 
L 293.63639 288.734935 
L 296.959681 288.262273 
L 300.282971 286.785203 
L 303.606262 285.308133 
L 306.929553 285.012719 
L 310.252844 285.012719 
L 313.576134 284.717305 
L 316.899425 283.831063 
L 320.222716 284.886113 
L 323.546007 284.548497 
L 326.869298 284.32342 
L 330.192588 284.32342 
L 333.515879 283.141764 
L 336.83917 283.141764 
L 340.162461 282.747879 
L 343.485751 282.747879 
L 346.809042 281.566223 
L 350.132333 281.566223 
L 353.455624 281.566223 
L 356.778914 280.384567 
L 360.102205 280.384567 
L 363.425496 279.990682 
L 366.748787 279.990682 
L 370.072077 279.202911 
L 373.395368 278.809026 
L 376.718659 276.8396 
L 380.04195 273.60974 
L 383.36524 293.776667 
L 386.688531 292.988896 
L 390.011822 291.413355 
L 393.335113 287.080617 
L 396.658403 281.172338 
L 399.981694 278.809026 
L 403.304985 278.809026 
L 406.628276 278.809026 
L 409.951566 278.809026 
L 413.274857 278.809026 
L 416.598148 278.809026 
L 419.921439 278.809026 
L 423.24473 278.809026 
L 426.56802 278.809026 
L 429.891311 278.809026 
L 433.214602 278.809026 
L 436.537893 276.445714 
L 439.861183 276.445714 
L 443.184474 274.082403 
" clip-path="url(#pae91896a5a)" style="fill: none; stroke: #1f77b4; stroke-width: 1.5; stroke-linecap: square"/>
   </g>
   <g id="line2d_16">
    <path d="M 70.975909 304.805455 
L 74.2992 304.805455 
L 77.622491 304.805455 
L 80.945781 304.332792 
L 84.269072 303.86013 
L 87.592363 303.269302 
L 90.915654 302.560308 
L 94.238944 301.969481 
L 97.562235 301.142321 
L 100.885526 300.433328 
L 104.208817 299.8425 
L 107.532107 299.015341 
L 110.855398 298.424513 
L 114.178689 297.361023 
L 117.50198 296.415698 
L 120.82527 295.588539 
L 124.148561 294.525049 
L 127.471852 293.579724 
L 130.795143 292.752565 
L 134.118434 291.80724 
L 137.441724 290.389253 
L 140.765015 289.325763 
L 144.088306 287.78961 
L 147.411597 286.962451 
L 150.734887 285.308133 
L 154.058178 284.008312 
L 157.381469 282.235828 
L 160.70476 280.936006 
L 164.02805 279.872516 
L 167.351341 278.927192 
L 170.674632 277.863701 
L 173.997923 276.327549 
L 177.321213 274.909562 
L 180.644504 273.373409 
L 183.967795 271.955422 
L 187.291086 271.594706 
L 190.614376 269.853319 
L 193.937667 268.733855 
L 197.260958 266.494928 
L 200.584249 265.00231 
L 203.907539 263.136538 
L 207.23083 261.519535 
L 210.554121 260.275687 
L 213.877412 258.409915 
L 217.200702 256.544142 
L 220.523993 254.927139 
L 223.847284 252.688213 
L 227.170575 251.319979 
L 230.493866 249.205437 
L 233.817156 247.71282 
L 237.140447 245.328777 
L 240.463738 243.228056 
L 243.787029 241.652514 
L 247.110319 240.076973 
L 250.43361 238.107547 
L 253.756901 236.925891 
L 257.080192 234.956465 
L 260.403482 235.574324 
L 263.726773 233.071994 
L 267.050064 229.622601 
L 270.373355 224.452857 
L 273.696645 223.03487 
L 277.019936 220.514004 
L 280.343227 220.90789 
L 283.666518 219.051002 
L 286.989808 217.700538 
L 290.313099 215.337226 
L 293.63639 213.649147 
L 296.959681 210.091194 
L 300.282971 204.56165 
L 303.606262 199.745508 
L 306.929553 198.026736 
L 310.252844 192.311818 
L 313.576134 192.679444 
L 316.899425 202.29681 
L 320.222716 204.871132 
L 323.546007 202.50782 
L 326.869298 201.494972 
L 330.192588 199.469276 
L 333.515879 197.781197 
L 336.83917 196.093117 
L 340.162461 192.379341 
L 343.485751 188.215411 
L 346.809042 187.427641 
L 350.132333 185.458214 
L 353.455624 177.659286 
L 356.778914 175.768636 
L 360.102205 174.823312 
L 363.425496 173.877987 
L 366.748787 172.932662 
L 370.072077 171.514675 
L 373.395368 170.096688 
L 376.718659 167.733377 
L 380.04195 176.398853 
L 383.36524 175.611082 
L 386.688531 115.740519 
L 390.011822 112.195552 
L 393.335113 107.468929 
L 396.658403 103.923961 
L 399.981694 102.742305 
L 403.304985 100.378994 
L 406.628276 99.197338 
L 409.951566 98.015682 
L 413.274857 94.470714 
L 416.598148 93.289058 
L 419.921439 92.107403 
L 423.24473 89.744091 
L 426.56802 137.010325 
L 429.891311 134.647013 
L 433.214602 134.647013 
L 436.537893 134.647013 
L 439.861183 134.647013 
L 443.184474 132.283701 
L 446.507765 129.92039 
L 449.831056 127.557078 
L 453.154346 125.193766 
L 456.477637 122.830455 
L 459.800928 120.467143 
L 463.124219 120.467143 
L 466.447509 118.103831 
L 469.7708 115.740519 
L 473.094091 113.377208 
" clip-path="url(#pae91896a5a)" style="fill: none; stroke: #ff7f0e; stroke-width: 1.5; stroke-linecap: square"/>
   </g>
   <g id="patch_3">
    <path d="M 50.87 318.04 
L 50.87 26.88 
" style="fill: none; stroke: #000000; stroke-width: 0.8; stroke-linejoin: miter; stroke-linecap: square"/>
   </g>
   <g id="patch_4">
    <path d="M 493.2 318.04 
L 493.2 26.88 
" style="fill: none; stroke: #000000; stroke-width: 0.8; stroke-linejoin: miter; stroke-linecap: square"/>
   </g>
   <g id="patch_5">
    <path d="M 50.87 318.04 
L 493.2 318.04 
" style="fill: none; stroke: #000000; stroke-width: 0.8; stroke-linejoin: miter; stroke-linecap: square"/>
   </g>
   <g id="patch_6">
    <path d="M 50.87 26.88 
L 493.2 26.88 
" style="fill: none; stroke: #000000; stroke-width: 0.8; stroke-linejoin: miter; stroke-linecap: square"/>
   </g>
   <g id="text_17">
    <!-- Delamination rate between TolloRNAi and vRNAi -->
    <g transform="translate(127.209063 20.88) scale(0.12 -0.12)">
     <defs>
      <path id="DejaVuSans-77" d="M 269 3500 
L 844 3500 
L 1563 769 
L 2278 3500 
L 2956 3500 
L 3675 769 
L 4391 3500 
L 4966 3500 
L 4050 0 
L 3372 0 
L 2619 2869 
L 1863 0 
L 1184 0 
L 269 3500 
z
" transform="scale(0.015625)"/>
      <path id="DejaVuSans-54" d="M -19 4666 
L 3928 4666 
L 3928 4134 
L 2272 4134 
L 2272 0 
L 1638 0 
L 1638 4134 
L -19 4134 
L -19 4666 
z
" transform="scale(0.015625)"/>
      <path id="DejaVuSans-52" d="M 2841 2188 
Q 3044 2119 3236 1894 
Q 3428 1669 3622 1275 
L 4263 0 
L 3584 0 
L 2988 1197 
Q 2756 1666 2539 1819 
Q 2322 1972 1947 1972 
L 1259 1972 
L 1259 0 
L 628 0 
L 628 4666 
L 2053 4666 
Q 2853 4666 3247 4331 
Q 3641 3997 3641 3322 
Q 3641 2881 3436 2590 
Q 3231 2300 2841 2188 
z
M 1259 4147 
L 1259 2491 
L 2053 2491 
Q 2509 2491 2742 2702 
Q 2975 2913 2975 3322 
Q 2975 3731 2742 3939 
Q 2509 4147 2053 4147 
L 1259 4147 
z
" transform="scale(0.015625)"/>
      <path id="DejaVuSans-4e" d="M 628 4666 
L 1478 4666 
L 3547 763 
L 3547 4666 
L 4159 4666 
L 4159 0 
L 3309 0 
L 1241 3903 
L 1241 0 
L 628 0 
L 628 4666 
z
" transform="scale(0.015625)"/>
     </defs>
     <use xlink:href="#DejaVuSans-44"/>
     <use xlink:href="#DejaVuSans-65" x="77.001953"/>
     <use xlink:href="#DejaVuSans-6c" x="138.525391"/>
     <use xlink:href="#DejaVuSans-61" x="166.308594"/>
     <use xlink:href="#DejaVuSans-6d" x="227.587891"/>
     <use xlink:href="#DejaVuSans-69" x="325"/>
     <use xlink:href="#DejaVuSans-6e" x="352.783203"/>
     <use xlink:href="#DejaVuSans-61" x="416.162109"/>
     <use xlink:href="#DejaVuSans-74" x="477.441406"/>
     <use xlink:href="#DejaVuSans-69" x="516.650391"/>
     <use xlink:href="#DejaVuSans-6f" x="544.433594"/>
     <use xlink:href="#DejaVuSans-6e" x="605.615234"/>
     <use xlink:href="#DejaVuSans-20" x="668.994141"/>
     <use xlink:href="#DejaVuSans-72" x="700.78125"/>
     <use xlink:href="#DejaVuSans-61" x="741.894531"/>
     <use xlink:href="#DejaVuSans-74" x="803.173828"/>
     <use xlink:href="#DejaVuSans-65" x="842.382812"/>
     <use xlink:href="#DejaVuSans-20" x="903.90625"/>
     <use xlink:href="#DejaVuSans-62" x="935.693359"/>
     <use xlink:href="#DejaVuSans-65" x="999.169922"/>
     <use xlink:href="#DejaVuSans-74" x="1060.693359"/>
     <use xlink:href="#DejaVuSans-77" x="1099.902344"/>
     <use xlink:href="#DejaVuSans-65" x="1181.689453"/>
     <use xlink:href="#DejaVuSans-65" x="1243.212891"/>
     <use xlink:href="#DejaVuSans-6e" x="1304.736328"/>
     <use xlink:href="#DejaVuSans-20" x="1368.115234"/>
     <use xlink:href="#DejaVuSans-54" x="1399.902344"/>
     <use xlink:href="#DejaVuSans-6f" x="1443.986328"/>
     <use xlink:href="#DejaVuSans-6c" x="1505.167969"/>
     <use xlink:href="#DejaVuSans-6c" x="1532.951172"/>
     <use xlink:href="#DejaVuSans-6f" x="1560.734375"/>
     <use xlink:href="#DejaVuSans-52" x="1621.916016"/>
     <use xlink:href="#DejaVuSans-4e" x="1691.398438"/>
     <use xlink:href="#DejaVuSans-41" x="1766.203125"/>
     <use xlink:href="#DejaVuSans-69" x="1834.611328"/>
     <use xlink:href="#DejaVuSans-20" x="1862.394531"/>
     <use xlink:href="#DejaVuSans-61" x="1894.181641"/>
     <use xlink:href="#DejaVuSans-6e" x="1955.460938"/>
     <use xlink:href="#DejaVuSans-64" x="2018.839844"/>
     <use xlink:href="#DejaVuSans-20" x="2082.316406"/>
     <use xlink:href="#DejaVuSans-76" x="2114.103516"/>
     <use xlink:href="#DejaVuSans-52" x="2173.283203"/>
     <use xlink:href="#DejaVuSans-4e" x="2242.765625"/>
     <use xlink:href="#DejaVuSans-41" x="2317.570312"/>
     <use xlink:href="#DejaVuSans-69" x="2385.978516"/>
    </g>
   </g>
   <g id="legend_1">
    <g id="patch_7">
     <path d="M 360.371875 64.23625 
L 486.2 64.23625 
Q 488.2 64.23625 488.2 62.23625 
L 488.2 33.88 
Q 488.2 31.88 486.2 31.88 
L 360.371875 31.88 
Q 358.371875 31.88 358.371875 33.88 
L 358.371875 62.23625 
Q 358.371875 64.23625 360.371875 64.23625 
z
" style="fill: #ffffff; opacity: 0.8; stroke: #cccccc; stroke-linejoin: miter"/>
    </g>
    <g id="line2d_17">
     <path d="M 362.371875 39.978437 
L 372.371875 39.978437 
L 382.371875 39.978437 
" style="fill: none; stroke: #1f77b4; stroke-width: 1.5; stroke-linecap: square"/>
    </g>
    <g id="text_18">
     <!-- Mean vi (n=11) -->
     <g transform="translate(390.371875 43.478437) scale(0.1 -0.1)">
      <defs>
       <path id="DejaVuSans-4d" d="M 628 4666 
L 1569 4666 
L 2759 1491 
L 3956 4666 
L 4897 4666 
L 4897 0 
L 4281 0 
L 4281 4097 
L 3078 897 
L 2444 897 
L 1241 4097 
L 1241 0 
L 628 0 
L 628 4666 
z
" transform="scale(0.015625)"/>
       <path id="DejaVuSans-3d" d="M 678 2906 
L 4684 2906 
L 4684 2381 
L 678 2381 
L 678 2906 
z
M 678 1631 
L 4684 1631 
L 4684 1100 
L 678 1100 
L 678 1631 
z
" transform="scale(0.015625)"/>
      </defs>
      <use xlink:href="#DejaVuSans-4d"/>
      <use xlink:href="#DejaVuSans-65" x="86.279297"/>
      <use xlink:href="#DejaVuSans-61" x="147.802734"/>
      <use xlink:href="#DejaVuSans-6e" x="209.082031"/>
      <use xlink:href="#DejaVuSans-20" x="272.460938"/>
      <use xlink:href="#DejaVuSans-76" x="304.248047"/>
      <use xlink:href="#DejaVuSans-69" x="363.427734"/>
      <use xlink:href="#DejaVuSans-20" x="391.210938"/>
      <use xlink:href="#DejaVuSans-28" x="422.998047"/>
      <use xlink:href="#DejaVuSans-6e" x="462.011719"/>
      <use xlink:href="#DejaVuSans-3d" x="525.390625"/>
      <use xlink:href="#DejaVuSans-31" x="609.179688"/>
      <use xlink:href="#DejaVuSans-31" x="672.802734"/>
      <use xlink:href="#DejaVuSans-29" x="736.425781"/>
     </g>
    </g>
    <g id="line2d_18">
     <path d="M 362.371875 54.656563 
L 372.371875 54.656563 
L 382.371875 54.656563 
" style="fill: none; stroke: #ff7f0e; stroke-width: 1.5; stroke-linecap: square"/>
    </g>
    <g id="text_19">
     <!-- Mean Tolloi (n=20) -->
     <g transform="translate(390.371875 58.156563) scale(0.1 -0.1)">
      <use xlink:href="#DejaVuSans-4d"/>
      <use xlink:href="#DejaVuSans-65" x="86.279297"/>
      <use xlink:href="#DejaVuSans-61" x="147.802734"/>
      <use xlink:href="#DejaVuSans-6e" x="209.082031"/>
      <use xlink:href="#DejaVuSans-20" x="272.460938"/>
      <use xlink:href="#DejaVuSans-54" x="304.248047"/>
      <use xlink:href="#DejaVuSans-6f" x="348.332031"/>
      <use xlink:href="#DejaVuSans-6c" x="409.513672"/>
      <use xlink:href="#DejaVuSans-6c" x="437.296875"/>
      <use xlink:href="#DejaVuSans-6f" x="465.080078"/>
      <use xlink:href="#DejaVuSans-69" x="526.261719"/>
      <use xlink:href="#DejaVuSans-20" x="554.044922"/>
      <use xlink:href="#DejaVuSans-28" x="585.832031"/>
      <use xlink:href="#DejaVuSans-6e" x="624.845703"/>
      <use xlink:href="#DejaVuSans-3d" x="688.224609"/>
      <use xlink:href="#DejaVuSans-32" x="772.013672"/>
      <use xlink:href="#DejaVuSans-30" x="835.636719"/>
      <use xlink:href="#DejaVuSans-29" x="899.259766"/>
     </g>
    </g>
   </g>
  </g>
 </g>
 <defs>
  <clipPath id="pae91896a5a">
   <rect x="50.87" y="26.88" width="442.33" height="291.16"/>
  </clipPath>
 </defs>
</svg>
